<svg width="86" height="86" viewBox="0 0 86 86" fill="none" xmlns="http://www.w3.org/2000/svg">
<g clip-path="url(#clip0_2318_2909)">
<mask id="mask0_2318_2909" style="mask-type:luminance" maskUnits="userSpaceOnUse" x="0" y="0" width="86" height="86">
<path d="M86 0H0V86H86V0Z" fill="white"/>
</mask>
<g mask="url(#mask0_2318_2909)">
<path d="M86 0H0V86H86V0Z" fill="white"/>
<path d="M66.2734 29.5053C66.2734 43.8926 54.4981 55.5556 39.9727 55.5556C25.4471 55.5556 13.6719 43.8926 13.6719 29.5053C13.6719 15.1182 25.4471 3.45508 39.9727 3.45508C54.4981 3.45508 66.2734 15.1182 66.2734 29.5053ZM17.6387 29.5053C17.6387 41.7226 27.6379 51.6266 39.9727 51.6266C52.3073 51.6266 62.3065 41.7226 62.3065 29.5053C62.3065 17.2882 52.3073 7.38416 39.9727 7.38416C27.6379 7.38416 17.6387 17.2882 17.6387 29.5053Z" fill="#4880FF"/>
<path d="M40.0998 8.03558C41.7428 8.03558 43.0747 6.71638 43.0747 5.08908C43.0747 3.46177 41.7428 2.14258 40.0998 2.14258C38.4569 2.14258 37.125 3.46177 37.125 5.08908C37.125 6.71638 38.4569 8.03558 40.0998 8.03558Z" fill="#FFFEFD"/>
<path d="M45.2377 5.08942C45.2377 7.90021 42.9372 10.1788 40.0994 10.1788C37.2615 10.1788 34.9609 7.90021 34.9609 5.08942C34.9609 2.27861 37.2615 0 40.0994 0C42.9372 0 45.2377 2.27861 45.2377 5.08942ZM37.5742 5.08942C37.5742 6.47071 38.7047 7.59048 40.0994 7.59048C41.4939 7.59048 42.6244 6.47071 42.6244 5.08942C42.6244 3.70811 41.4939 2.58834 40.0994 2.58834C38.7047 2.58834 37.5742 3.70811 37.5742 5.08942Z" fill="#4880FF"/>
<path d="M40.0998 55.5883C41.7428 55.5883 43.0747 54.2691 43.0747 52.6418C43.0747 51.0145 41.7428 49.6953 40.0998 49.6953C38.4569 49.6953 37.125 51.0145 37.125 52.6418C37.125 54.2691 38.4569 55.5883 40.0998 55.5883Z" fill="#FFFEFD"/>
<path d="M45.2377 52.6421C45.2377 55.4529 42.9372 57.7315 40.0994 57.7315C37.2615 57.7315 34.9609 55.4529 34.9609 52.6421C34.9609 49.8313 37.2615 47.5527 40.0994 47.5527C42.9372 47.5527 45.2377 49.8313 45.2377 52.6421ZM37.5742 52.6421C37.5742 54.0235 38.7047 55.1433 40.0994 55.1433C41.4939 55.1433 42.6244 54.0235 42.6244 52.6421C42.6244 51.2609 41.4939 50.1411 40.0994 50.1411C38.7047 50.1411 37.5742 51.2609 37.5742 52.6421Z" fill="#4880FF"/>
<path d="M65.1545 32.018C66.7975 32.018 68.1293 30.6988 68.1293 29.0715C68.1293 27.4442 66.7975 26.125 65.1545 26.125C63.5116 26.125 62.1797 27.4442 62.1797 29.0715C62.1797 30.6988 63.5116 32.018 65.1545 32.018Z" fill="#FFFEFD"/>
<path d="M70.2845 29.0719C70.2845 31.8827 67.984 34.1613 65.1461 34.1613C62.3083 34.1613 60.0078 31.8827 60.0078 29.0719C60.0078 26.2611 62.3083 23.9824 65.1461 23.9824C67.984 23.9824 70.2845 26.2611 70.2845 29.0719ZM62.6211 29.0719C62.6211 30.4531 63.7515 31.5729 65.1461 31.5729C66.5408 31.5729 67.6712 30.4531 67.6712 29.0719C67.6712 27.6906 66.5408 26.5708 65.1461 26.5708C63.7515 26.5708 62.6211 27.6906 62.6211 29.0719Z" fill="#4880FF"/>
<path d="M15.8889 32.4321C17.5318 32.4321 18.8637 31.1129 18.8637 29.4856C18.8637 27.8583 17.5318 26.5391 15.8889 26.5391C14.2459 26.5391 12.9141 27.8583 12.9141 29.4856C12.9141 31.1129 14.2459 32.4321 15.8889 32.4321Z" fill="#FFFEFD"/>
<path d="M21.0267 29.0719C21.0267 31.8827 18.7262 34.1613 15.8883 34.1613C13.0505 34.1613 10.75 31.8827 10.75 29.0719C10.75 26.2611 13.0505 23.9824 15.8883 23.9824C18.7262 23.9824 21.0267 26.2611 21.0267 29.0719ZM13.3632 29.0719C13.3632 30.4531 14.4937 31.5729 15.8883 31.5729C17.2829 31.5729 18.4134 30.4531 18.4134 29.0719C18.4134 27.6906 17.2829 26.5708 15.8883 26.5708C14.4937 26.5708 13.3632 27.6906 13.3632 29.0719Z" fill="#4880FF"/>
<path d="M22.1545 15.0649C23.7975 15.0649 25.1293 13.7457 25.1293 12.1184C25.1293 10.4911 23.7975 9.17188 22.1545 9.17188C20.5116 9.17188 19.1797 10.4911 19.1797 12.1184C19.1797 13.7457 20.5116 15.0649 22.1545 15.0649Z" fill="#FFFEFD"/>
<path d="M27.2845 12.1187C27.2845 14.9295 24.984 17.2082 22.1461 17.2082C19.3083 17.2082 17.0078 14.9295 17.0078 12.1187C17.0078 9.30794 19.3083 7.0293 22.1461 7.0293C24.984 7.0293 27.2845 9.30794 27.2845 12.1187ZM19.6211 12.1187C19.6211 13.5 20.7515 14.6198 22.1461 14.6198C23.5408 14.6198 24.6712 13.5 24.6712 12.1187C24.6712 10.7374 23.5408 9.61763 22.1461 9.61763C20.7515 9.61763 19.6211 10.7374 19.6211 12.1187Z" fill="#4880FF"/>
<path d="M58.467 48.9731C60.11 48.9731 61.4418 47.6539 61.4418 46.0266C61.4418 44.3993 60.11 43.0801 58.467 43.0801C56.8241 43.0801 55.4922 44.3993 55.4922 46.0266C55.4922 47.6539 56.8241 48.9731 58.467 48.9731Z" fill="#FFFEFD"/>
<path d="M63.6049 46.0249C63.6049 48.8358 61.3044 51.1143 58.4665 51.1143C55.6287 51.1143 53.3281 48.8358 53.3281 46.0249C53.3281 43.2141 55.6287 40.9355 58.4665 40.9355C61.3044 40.9355 63.6049 43.2141 63.6049 46.0249ZM55.9414 46.0249C55.9414 47.4063 57.0719 48.526 58.4665 48.526C59.8611 48.526 60.9916 47.4063 60.9916 46.0249C60.9916 44.6436 59.8611 43.5239 58.4665 43.5239C57.0719 43.5239 55.9414 44.6436 55.9414 46.0249Z" fill="#4880FF"/>
<path d="M58.467 15.0649C60.11 15.0649 61.4418 13.7457 61.4418 12.1184C61.4418 10.4911 60.11 9.17188 58.467 9.17188C56.8241 9.17188 55.4922 10.4911 55.4922 12.1184C55.4922 13.7457 56.8241 15.0649 58.467 15.0649Z" fill="#FFFEFD"/>
<path d="M63.6049 12.1187C63.6049 14.9295 61.3044 17.2082 58.4665 17.2082C55.6287 17.2082 53.3281 14.9295 53.3281 12.1187C53.3281 9.30794 55.6287 7.0293 58.4665 7.0293C61.3044 7.0293 63.6049 9.30794 63.6049 12.1187ZM55.9414 12.1187C55.9414 13.5 57.0719 14.6198 58.4665 14.6198C59.8611 14.6198 60.9916 13.5 60.9916 12.1187C60.9916 10.7374 59.8611 9.61763 58.4665 9.61763C57.0719 9.61763 55.9414 10.7374 55.9414 12.1187Z" fill="#4880FF"/>
<path d="M21.3186 48.9731C22.9615 48.9731 24.2934 47.6539 24.2934 46.0266C24.2934 44.3993 22.9615 43.0801 21.3186 43.0801C19.6756 43.0801 18.3438 44.3993 18.3438 46.0266C18.3438 47.6539 19.6756 48.9731 21.3186 48.9731Z" fill="#FFFEFD"/>
<path d="M26.4564 46.0249C26.4564 48.8358 24.1559 51.1143 21.318 51.1143C18.4802 51.1143 16.1797 48.8358 16.1797 46.0249C16.1797 43.2141 18.4802 40.9355 21.318 40.9355C24.1559 40.9355 26.4564 43.2141 26.4564 46.0249ZM18.7929 46.0249C18.7929 47.4063 19.9234 48.526 21.318 48.526C22.7126 48.526 23.8431 47.4063 23.8431 46.0249C23.8431 44.6436 22.7126 43.5239 21.318 43.5239C19.9234 43.5239 18.7929 44.6436 18.7929 46.0249Z" fill="#4880FF"/>
<path d="M1.25781 81.0851V66.7891H4.30944V73.0925H4.49972L9.69387 66.7891H13.3515L7.99535 73.1902L13.415 81.0851H9.76433L5.81059 75.2076L4.30944 77.0225V81.0851H1.25781ZM18.9809 81.2946C17.8861 81.2946 16.9394 81.0642 16.1406 80.6034C15.3466 80.1381 14.7335 79.4913 14.3012 78.6629C13.869 77.8299 13.6529 76.8642 13.6529 75.766C13.6529 74.6584 13.869 73.6904 14.3012 72.8621C14.7335 72.0291 15.3466 71.3822 16.1406 70.9215C16.9394 70.4561 17.8861 70.2234 18.9809 70.2234C20.0756 70.2234 21.02 70.4561 21.814 70.9215C22.6127 71.3822 23.2282 72.0291 23.6605 72.8621C24.0928 73.6904 24.3089 74.6584 24.3089 75.766C24.3089 76.8642 24.0928 77.8299 23.6605 78.6629C23.2282 79.4913 22.6127 80.1381 21.814 80.6034C21.02 81.0642 20.0756 81.2946 18.9809 81.2946ZM18.9949 78.991C19.493 78.991 19.9088 78.8513 20.2424 78.5721C20.576 78.2882 20.8273 77.902 20.9965 77.4133C21.1703 76.9248 21.2572 76.3686 21.2572 75.745C21.2572 75.1215 21.1703 74.5653 20.9965 74.0767C20.8273 73.5881 20.576 73.2018 20.2424 72.9179C19.9088 72.634 19.493 72.4921 18.9949 72.4921C18.4923 72.4921 18.0694 72.634 17.7264 72.9179C17.3881 73.2018 17.132 73.5881 16.9582 74.0767C16.789 74.5653 16.7044 75.1215 16.7044 75.745C16.7044 76.3686 16.789 76.9248 16.9582 77.4133C17.132 77.902 17.3881 78.2882 17.7264 78.5721C18.0694 78.8513 18.4923 78.991 18.9949 78.991ZM30.25 81.2597C29.4278 81.2597 28.6831 81.0502 28.0159 80.6314C27.3535 80.2079 26.8272 79.5867 26.4372 78.7676C26.052 77.9439 25.8594 76.934 25.8594 75.7381C25.8594 74.5095 26.059 73.488 26.4584 72.6736C26.8577 71.8545 27.3887 71.2426 28.0512 70.8377C28.7183 70.4282 29.449 70.2234 30.243 70.2234C30.849 70.2234 31.3541 70.3258 31.7582 70.5306C32.167 70.7307 32.4959 70.982 32.7449 71.2845C32.9986 71.5823 33.1912 71.8755 33.3228 72.1641H33.4144V66.7891H36.4097V81.0851H33.4496V79.3679H33.3228C33.1819 79.6657 32.9822 79.9612 32.7238 80.2545C32.4701 80.543 32.1388 80.7827 31.73 80.9734C31.326 81.1642 30.8327 81.2597 30.25 81.2597ZM31.2015 78.8933C31.6854 78.8933 32.0941 78.763 32.4277 78.5023C32.766 78.2371 33.0244 77.8671 33.203 77.3925C33.3862 76.9177 33.4778 76.3617 33.4778 75.7241C33.4778 75.0865 33.3886 74.5327 33.2101 74.0627C33.0315 73.5927 32.7731 73.2297 32.4348 72.9738C32.0965 72.7178 31.6854 72.5898 31.2015 72.5898C30.7081 72.5898 30.2924 72.7225 29.9541 72.9877C29.6158 73.253 29.3597 73.6207 29.1859 74.0906C29.012 74.5607 28.925 75.1052 28.925 75.7241C28.925 76.3477 29.012 76.8991 29.1859 77.3784C29.3644 77.8532 29.6205 78.2254 29.9541 78.4954C30.2924 78.7606 30.7081 78.8933 31.2015 78.8933ZM45.82 76.5198V70.3631H48.8223V81.0851H45.9398V79.1376H45.8271C45.5827 79.7658 45.1763 80.2708 44.6078 80.6523C44.044 81.0339 43.3557 81.2248 42.5429 81.2248C41.8193 81.2248 41.1827 81.0619 40.6329 80.7361C40.0833 80.4103 39.6534 79.9473 39.3433 79.3469C39.0378 78.7467 38.8828 78.0276 38.8781 77.19V70.3631H41.8804V76.6595C41.8851 77.2924 42.0566 77.7926 42.3949 78.1603C42.7332 78.5279 43.1866 78.7118 43.7551 78.7118C44.1169 78.7118 44.4552 78.6303 44.77 78.4675C45.0847 78.2999 45.3385 78.0533 45.5311 77.7275C45.7285 77.4017 45.8247 76.9992 45.82 76.5198ZM53.9442 77.9998L53.9512 74.4327H54.3882L57.8556 70.3631H61.302L56.6434 75.752H55.9316L53.9442 77.9998ZM51.2239 81.0851V66.7891H54.2261V81.0851H51.2239ZM57.9896 81.0851L54.804 76.4152L56.8056 74.3141L61.5063 81.0851H57.9896ZM65.4953 77.9998L65.5023 74.4327H65.9393L69.4067 70.3631H72.853L68.1945 75.752H67.4827L65.4953 77.9998ZM62.7749 81.0851V66.7891H65.7772V81.0851H62.7749ZM69.5406 81.0851L66.3551 76.4152L68.3566 74.3141L73.0574 81.0851H69.5406ZM81.2679 76.5198V70.3631H84.2701V81.0851H81.3877V79.1376H81.275C81.0306 79.7658 80.6242 80.2708 80.0557 80.6523C79.4919 81.0339 78.8036 81.2248 77.9908 81.2248C77.2672 81.2248 76.6306 81.0619 76.0808 80.7361C75.5311 80.4103 75.1013 79.9473 74.7912 79.3469C74.4857 78.7467 74.3307 78.0276 74.326 77.19V70.3631H77.3282V76.6595C77.333 77.2924 77.5045 77.7926 77.8428 78.1603C78.181 78.5279 78.6344 78.7118 79.203 78.7118C79.5647 78.7118 79.903 78.6303 80.2178 78.4675C80.5326 78.2999 80.7864 78.0533 80.9789 77.7275C81.1762 77.4017 81.2726 76.9992 81.2679 76.5198Z" fill="#4880FF"/>
</g>
</g>
<defs>
<clipPath id="clip0_2318_2909">
<rect width="86" height="86" fill="white"/>
</clipPath>
</defs>
</svg>
